<?xml version="1.0" standalone="no"?>
<!DOCTYPE svg PUBLIC "-//W3C//DTD SVG 20010904//EN"
 "http://www.w3.org/TR/2001/REC-SVG-20010904/DTD/svg10.dtd">
<svg version="1.0" xmlns="http://www.w3.org/2000/svg"
 width="429.000000pt" height="112.000000pt" viewBox="0 0 429.000000 112.000000"
 preserveAspectRatio="xMidYMid meet">
<metadata>
Created by potrace 1.16, written by Peter Selinger 2001-2019
</metadata>
<g transform="translate(0.000000,112.000000) scale(0.100000,-0.100000)"
fill="#000000" stroke="none">
<path d="M2439 910 c-96 -17 -185 -84 -230 -176 -20 -41 -24 -64 -24 -139 0
-105 22 -162 88 -228 112 -112 308 -121 426 -20 l42 36 -24 16 c-13 9 -34 26
-46 38 l-23 22 -39 -29 c-128 -93 -309 0 -309 159 0 61 13 97 48 135 74 79
196 86 276 15 l34 -29 42 35 c23 19 46 32 51 29 5 -3 9 -1 9 4 0 6 -23 30 -50
55 -72 65 -174 94 -271 77z"/>
<path d="M240 595 l0 -315 60 0 60 0 0 88 0 88 185 218 c102 120 187 222 191
227 3 5 -29 9 -73 9 l-79 0 -109 -132 -110 -133 -3 133 -3 132 -59 0 -60 0 0
-315z"/>
<path d="M760 855 l0 -55 204 0 205 0 3 50 3 50 108 -176 107 -175 0 -135 0
-134 60 0 60 0 0 139 0 140 101 162 c56 89 103 168 106 176 4 10 -11 13 -65
13 l-70 0 -62 -105 c-34 -58 -65 -107 -69 -110 -4 -2 -37 44 -73 103 l-65 107
-276 3 -277 2 0 -55z"/>
<path d="M1812 889 c-62 -31 -95 -85 -95 -153 0 -96 52 -145 216 -206 90 -34
112 -91 47 -125 -55 -29 -128 -10 -187 47 l-32 31 -28 -33 c-57 -68 -57 -65
-14 -99 66 -52 118 -71 200 -71 90 0 148 24 189 78 23 30 27 45 27 103 0 100
-37 141 -175 194 -84 32 -120 59 -120 90 0 33 27 50 81 50 38 0 57 -7 94 -33
26 -18 48 -32 49 -30 1 2 17 22 34 44 18 23 32 46 32 51 0 5 -26 24 -57 43
-51 31 -66 35 -138 38 -66 3 -87 -1 -123 -19z"/>
<path d="M2962 889 c-75 -29 -145 -101 -168 -176 -26 -79 -24 -193 4 -255 85
-193 359 -240 512 -88 158 159 101 442 -105 519 -73 27 -171 27 -243 0z m204
-118 c23 -10 45 -24 48 -30 4 -6 18 -11 31 -11 25 0 71 -53 111 -126 l17 -31
-43 -54 c-45 -58 -64 -73 -83 -66 -6 2 -36 -9 -65 -25 -80 -41 -163 -33 -233
24 -52 42 -75 152 -45 221 41 97 164 143 262 98z"/>
<path d="M2974 716 c-3 -8 -16 -17 -30 -20 -17 -5 -24 -13 -24 -31 0 -32 15
-40 42 -21 30 21 45 20 75 -4 24 -19 28 -19 49 -5 30 19 49 19 79 -1 23 -15
27 -15 51 0 38 25 65 17 79 -24 12 -36 6 -84 -11 -86 -5 0 -17 -4 -26 -8 -10
-5 -89 -7 -177 -5 l-158 4 15 -22 c14 -22 19 -23 176 -23 l161 0 35 53 c19 28
36 55 38 58 2 4 -19 37 -45 73 l-48 66 -23 -30 c-30 -38 -57 -38 -77 0 -19 37
-31 38 -62 4 l-24 -27 -33 32 c-35 34 -54 39 -62 17z"/>
<path d="M3470 595 l0 -315 60 0 60 0 2 183 3 182 70 -122 70 -123 42 0 42 0
73 123 73 122 3 -182 2 -183 60 0 60 0 0 315 0 315 -57 0 -58 -1 -95 -169
c-52 -94 -98 -169 -103 -167 -4 1 -49 76 -100 167 l-94 165 -56 3 -57 3 0
-316z"/>
<path d="M760 595 l0 -55 205 0 205 0 0 55 0 55 -205 0 -205 0 0 -55z"/>
<path d="M454 474 c3 -8 36 -56 73 -105 l66 -89 74 0 c59 0 72 3 66 13 -4 8
-37 55 -73 105 l-65 92 -74 0 c-62 0 -72 -2 -67 -16z"/>
<path d="M760 335 l0 -55 205 0 205 0 0 55 0 55 -205 0 -205 0 0 -55z"/>
</g>
</svg>
